<svg width="16" height="17" viewBox="0 0 16 17" fill="none" xmlns="http://www.w3.org/2000/svg">
<path d="M4.96152 16.9647C4.55662 16.9647 4.21234 16.8229 3.92869 16.5392C3.64503 16.2556 3.50321 15.9113 3.50321 15.5064C3.50321 15.1015 3.64503 14.7572 3.92869 14.4735C4.21234 14.1899 4.55662 14.0481 4.96152 14.0481C5.36644 14.0481 5.71072 14.1899 5.99437 14.4735C6.27803 14.7572 6.41985 15.1015 6.41985 15.5064C6.41985 15.9113 6.27803 16.2556 5.99437 16.5392C5.71072 16.8229 5.36644 16.9647 4.96152 16.9647ZM13.0384 16.9647C12.6335 16.9647 12.2892 16.8229 12.0056 16.5392C11.7219 16.2556 11.5801 15.9113 11.5801 15.5064C11.5801 15.1015 11.7219 14.7572 12.0056 14.4735C12.2892 14.1899 12.6335 14.0481 13.0384 14.0481C13.4433 14.0481 13.7876 14.1899 14.0713 14.4735C14.3549 14.7572 14.4967 15.1015 14.4967 15.5064C14.4967 15.9113 14.3549 16.2556 14.0713 16.5392C13.7876 16.8229 13.4433 16.9647 13.0384 16.9647ZM4.01279 3.79165L6.12498 8.21473H11.8061C11.8541 8.21473 11.8969 8.20271 11.9343 8.17867C11.9717 8.15463 12.0037 8.12124 12.0304 8.0785L14.266 4.016C14.2981 3.95724 14.3007 3.90515 14.274 3.85975C14.2473 3.81433 14.2019 3.79163 14.1378 3.79163L4.01279 3.79165ZM3.41344 2.54169H14.9839C15.3247 2.54169 15.5825 2.68672 15.7571 2.97677C15.9318 3.26684 15.9401 3.56305 15.782 3.8654L13.1121 8.70188C12.9754 8.94227 12.7946 9.1295 12.5697 9.26359C12.3448 9.39765 12.0983 9.46469 11.8301 9.46469H5.74998L4.78523 11.2275C4.74249 11.2916 4.74116 11.3611 4.78123 11.4359C4.8213 11.5107 4.8814 11.5481 4.96152 11.5481H14.4967V12.798H4.96152C4.40598 12.798 3.98851 12.5584 3.70912 12.0793C3.42975 11.6001 3.41987 11.1218 3.67948 10.6442L4.8686 8.50638L1.83654 2.12496H0.25V0.875H2.62177L3.41344 2.54169Z" fill="#5D6570"/>
</svg>
