<svg width="22" height="16" viewBox="0 0 22 16" fill="none" xmlns="http://www.w3.org/2000/svg">
<path d="M0.796875 15.3077V13.0846C0.796875 12.5693 0.929892 12.1093 1.19592 11.7049C1.46194 11.3004 1.81721 10.9857 2.26172 10.7608C3.21207 10.2959 4.16769 9.93755 5.12857 9.68563C6.08947 9.43372 7.14557 9.30776 8.29685 9.30776C9.44813 9.30776 10.5042 9.43372 11.4651 9.68563C12.426 9.93755 13.3816 10.2959 14.332 10.7608C14.7765 10.9857 15.1318 11.3004 15.3978 11.7049C15.6638 12.1093 15.7968 12.5693 15.7968 13.0846V15.3077H0.796875ZM17.7968 15.3077V12.9616C17.7968 12.3052 17.6361 11.6796 17.3146 11.0848C16.9932 10.4901 16.5373 9.97978 15.9469 9.55391C16.6174 9.65391 17.2539 9.80872 17.8564 10.0183C18.459 10.228 19.034 10.4757 19.5814 10.7616C20.0981 11.0372 20.4971 11.3621 20.7785 11.7362C21.0599 12.1103 21.2006 12.5188 21.2006 12.9616V15.3077H17.7968ZM8.29685 7.69231C7.33437 7.69231 6.51042 7.34961 5.825 6.66421C5.13958 5.97879 4.79688 5.15484 4.79688 4.19236C4.79688 3.22986 5.13958 2.40591 5.825 1.72051C6.51042 1.03509 7.33437 0.692383 8.29685 0.692383C9.25933 0.692383 10.0833 1.03509 10.7687 1.72051C11.4541 2.40591 11.7968 3.22986 11.7968 4.19236C11.7968 5.15484 11.4541 5.97879 10.7687 6.66421C10.0833 7.34961 9.25933 7.69231 8.29685 7.69231ZM16.9314 4.19236C16.9314 5.15484 16.5887 5.97879 15.9033 6.66421C15.2178 7.34961 14.3939 7.69231 13.4314 7.69231C13.3186 7.69231 13.175 7.67949 13.0007 7.65386C12.8263 7.62823 12.6827 7.60003 12.5699 7.56926C12.9643 7.09514 13.2673 6.56917 13.4791 5.99133C13.6909 5.4135 13.7968 4.81344 13.7968 4.19116C13.7968 3.56889 13.6888 2.97122 13.4728 2.39813C13.2568 1.82507 12.9558 1.29751 12.5699 0.815459C12.7135 0.764175 12.8571 0.730842 13.0007 0.715459C13.1442 0.700075 13.2878 0.692383 13.4314 0.692383C14.3939 0.692383 15.2178 1.03509 15.9033 1.72051C16.5887 2.40591 16.9314 3.22986 16.9314 4.19236ZM2.29685 13.8077H14.2969V13.0846C14.2969 12.8757 14.2446 12.6898 14.1401 12.5269C14.0356 12.3641 13.8699 12.2218 13.643 12.1C12.8199 11.6757 11.9725 11.3542 11.1007 11.1356C10.2289 10.917 9.29428 10.8077 8.29685 10.8077C7.29942 10.8077 6.3648 10.917 5.493 11.1356C4.62122 11.3542 3.77378 11.6757 2.9507 12.1C2.72378 12.2218 2.55807 12.3641 2.45357 12.5269C2.34909 12.6898 2.29685 12.8757 2.29685 13.0846V13.8077ZM8.29685 6.19236C8.84685 6.19236 9.31768 5.99653 9.70935 5.60486C10.101 5.21319 10.2969 4.74236 10.2969 4.19236C10.2969 3.64236 10.101 3.17153 9.70935 2.77986C9.31768 2.38819 8.84685 2.19236 8.29685 2.19236C7.74685 2.19236 7.27602 2.38819 6.88435 2.77986C6.49268 3.17153 6.29685 3.64236 6.29685 4.19236C6.29685 4.74236 6.49268 5.21319 6.88435 5.60486C7.27602 5.99653 7.74685 6.19236 8.29685 6.19236Z" fill="#5D6570"/>
</svg>
