<svg width="90" height="100" viewBox="0 0 90 100" fill="none" xmlns="http://www.w3.org/2000/svg">
<rect width="90" height="100" rx="16" fill="#EAF2FF"/>
<mask id="mask0_870_576" style="mask-type:alpha" maskUnits="userSpaceOnUse" x="29" y="36" width="32" height="28">
<path d="M40.4628 45.6217C40.4628 47.4626 39.0301 48.9549 37.2629 48.9549C35.4957 48.9549 34.063 47.4626 34.063 45.6217C34.063 43.7808 35.4957 42.2885 37.2629 42.2885C39.0301 42.2885 40.4628 43.7808 40.4628 45.6217Z" fill="#B4DBFF"/>
<path fill-rule="evenodd" clip-rule="evenodd" d="M29.001 40.0004C29.001 38.1596 30.4336 36.6672 32.2009 36.6672H57.7999C59.5671 36.6672 60.9997 38.1596 60.9997 40.0004V59.9996C60.9997 61.8405 59.5671 63.3328 57.7999 63.3328H55.6877C55.6806 63.3328 55.6736 63.3329 55.6666 63.3329H32.9301C32.9241 63.3329 32.9181 63.3328 32.9121 63.3328H32.2009C30.4336 63.3328 29.001 61.8405 29.001 59.9996V40.0004ZM32.2009 39.1671H57.7999C58.2417 39.1671 58.5998 39.5402 58.5998 40.0004V50.3869L51.6477 43.3337L39.82 55.3332L36.3359 51.7984L31.4009 56.8052V40.0004C31.4009 39.5402 31.759 39.1671 32.2009 39.1671Z" fill="#B4DBFF"/>
</mask>
<g mask="url(#mask0_870_576)">
<rect x="29" y="33.9998" width="31.9987" height="31.9987" fill="#B4DBFF"/>
</g>
</svg>
