<svg width="250" height="162" viewBox="0 0 250 162" fill="none" xmlns="http://www.w3.org/2000/svg">
<path d="M0 13C0 5.8203 5.8203 0 13 0H237C244.18 0 250 5.8203 250 13V162H0V13Z" fill="#EAF2FF"/>
<mask id="mask0_505_2253" style="mask-type:alpha" maskUnits="userSpaceOnUse" x="109" y="67" width="32" height="28">
<path d="M120.463 76.6217C120.463 78.4626 119.03 79.9549 117.263 79.9549C115.496 79.9549 114.063 78.4626 114.063 76.6217C114.063 74.7808 115.496 73.2885 117.263 73.2885C119.03 73.2885 120.463 74.7808 120.463 76.6217Z" fill="#B4DBFF"/>
<path fill-rule="evenodd" clip-rule="evenodd" d="M109.001 71.0004C109.001 69.1596 110.434 67.6672 112.201 67.6672H137.8C139.567 67.6672 141 69.1596 141 71.0004V90.9996C141 92.8405 139.567 94.3328 137.8 94.3328H135.688C135.681 94.3328 135.674 94.3329 135.667 94.3329H112.93C112.924 94.3329 112.918 94.3328 112.912 94.3328H112.201C110.434 94.3328 109.001 92.8405 109.001 90.9996V71.0004ZM112.201 70.1671H137.8C138.242 70.1671 138.6 70.5402 138.6 71.0004V81.3869L131.648 74.3337L119.82 86.3332L116.336 82.7984L111.401 87.8052V71.0004C111.401 70.5402 111.759 70.1671 112.201 70.1671Z" fill="#B4DBFF"/>
</mask>
<g mask="url(#mask0_505_2253)">
<rect x="109" y="64.9998" width="31.9987" height="31.9987" fill="#B4DBFF"/>
</g>
</svg>
