<svg width="16" height="16" viewBox="0 0 16 16" fill="none" xmlns="http://www.w3.org/2000/svg">
<path d="M4.38552 12.3714C4.61545 12.3714 4.80797 12.2937 4.96309 12.1381C5.11822 11.9826 5.19578 11.7898 5.19578 11.5599C5.19578 11.33 5.11801 11.1375 4.96247 10.9823C4.80694 10.8272 4.61421 10.7497 4.38428 10.7497C4.15435 10.7497 3.96182 10.8274 3.80669 10.983C3.65157 11.1385 3.57402 11.3312 3.57402 11.5612C3.57402 11.7911 3.65178 11.9836 3.80731 12.1387C3.96285 12.2939 4.15559 12.3714 4.38552 12.3714ZM4.38552 8.81054C4.61545 8.81054 4.80797 8.73277 4.96309 8.57724C5.11822 8.4217 5.19578 8.22896 5.19578 7.99903C5.19578 7.7691 5.11801 7.57657 4.96247 7.42144C4.80694 7.26633 4.61421 7.18877 4.38428 7.18877C4.15435 7.18877 3.96182 7.26653 3.80669 7.42206C3.65157 7.5776 3.57402 7.77034 3.57402 8.00027C3.57402 8.2302 3.65178 8.42273 3.80731 8.57786C3.96285 8.73298 4.15559 8.81054 4.38552 8.81054ZM4.38552 5.24965C4.61545 5.24965 4.80797 5.17188 4.96309 5.01634C5.11822 4.86081 5.19578 4.66808 5.19578 4.43815C5.19578 4.20822 5.11801 4.01569 4.96247 3.86056C4.80694 3.70543 4.61421 3.62786 4.38428 3.62786C4.15435 3.62786 3.96182 3.70563 3.80669 3.86118C3.65157 4.01672 3.57402 4.20946 3.57402 4.43939C3.57402 4.66932 3.65178 4.86184 3.80731 5.01696C3.96285 5.17209 4.15559 5.24965 4.38552 5.24965ZM7.17015 12.248H12.3881V10.8731H7.17015V12.248ZM7.17015 8.68713H12.3881V7.31218H7.17015V8.68713ZM7.17015 5.12625H12.3881V3.75127H7.17015V5.12625ZM1.86409 15.7913C1.40105 15.7913 1.00911 15.6309 0.688281 15.31C0.367448 14.9892 0.207031 14.5973 0.207031 14.1342V1.86507C0.207031 1.40203 0.367448 1.01009 0.688281 0.689258C1.00911 0.368424 1.40105 0.208008 1.86409 0.208008H14.1333C14.5963 0.208008 14.9882 0.368424 15.3091 0.689258C15.6299 1.01009 15.7903 1.40203 15.7903 1.86507V14.1342C15.7903 14.5973 15.6299 14.9892 15.3091 15.31C14.9882 15.6309 14.5963 15.7913 14.1333 15.7913H1.86409ZM1.86409 14.4163H14.1333C14.2038 14.4163 14.2684 14.3869 14.3272 14.3282C14.386 14.2694 14.4153 14.2048 14.4153 14.1342V1.86507C14.4153 1.79455 14.386 1.7299 14.3272 1.67112C14.2684 1.61237 14.2038 1.58299 14.1333 1.58299H1.86409C1.79357 1.58299 1.72892 1.61237 1.67015 1.67112C1.61139 1.7299 1.58201 1.79455 1.58201 1.86507V14.1342C1.58201 14.2048 1.61139 14.2694 1.67015 14.3282C1.72892 14.3869 1.79357 14.4163 1.86409 14.4163Z" fill="#5D6570"/>
</svg>
