<svg width="184" height="30" viewBox="0 0 184 30" fill="none" xmlns="http://www.w3.org/2000/svg">
<rect width="183.291" height="29.1587" rx="10" fill="#006FFD"/>
<g clip-path="url(#clip0_505_3995)">
<path d="M20.6991 13.0811C21.8772 13.0811 22.8322 12.2386 22.8322 11.1992C22.8322 10.1599 21.8772 9.31738 20.6991 9.31738C19.521 9.31738 18.5659 10.1599 18.5659 11.1992C18.5659 12.2386 19.521 13.0811 20.6991 13.0811Z" fill="white"/>
<path d="M38.2266 18.1255C37.2192 17.2892 35.9453 16.7403 34.5528 16.5835V7.01734C34.5528 5.998 34.0788 5.08321 33.3381 4.40365C32.5678 3.72409 31.5308 3.33203 30.3754 3.33203H13.1916C12.0361 3.33203 10.9992 3.75022 10.2289 4.40365C9.45857 5.08321 9.01416 5.998 9.01416 7.01734V19.0665V20.1904V22.6211C9.01416 23.6404 9.4882 24.5552 10.2289 25.2348C10.9992 25.9144 12.0361 26.3064 13.1916 26.3064H29.8124C30.9087 27.0905 32.2715 27.5871 33.7825 27.5871C35.5305 27.5871 37.1007 26.9598 38.2266 25.9666C39.3524 24.9734 40.0635 23.5882 40.0635 22.0461C40.0635 20.504 39.3524 19.1188 38.2266 18.1255ZM10.5844 7.01734C10.5844 6.39006 10.8807 5.81504 11.3547 5.42299C11.8287 5.0048 12.4805 4.74343 13.1916 4.74343H30.3754C31.0864 4.74343 31.7382 5.0048 32.2123 5.42299C32.6863 5.84118 32.9826 6.41619 32.9826 7.04348V15.1982L28.5977 11.3299C28.3015 11.0686 27.7978 11.0424 27.4719 11.3299L20.865 17.1846L16.3913 13.2118C16.0951 12.9504 15.5914 12.9243 15.2655 13.2118L10.5844 17.3937V7.01734ZM13.162 24.9734V24.9212C12.4509 24.9212 11.7991 24.6598 11.3251 24.2416C10.8807 23.8234 10.5844 23.2484 10.5844 22.6211V20.1904V19.3801L15.8284 14.7277L20.3021 18.6744C20.5984 18.9358 21.1021 18.9358 21.428 18.6744L28.0348 12.8197L32.3604 16.6619C32.2715 16.688 32.1826 16.7142 32.0937 16.7403C31.9752 16.7664 31.8567 16.7926 31.7086 16.8448C31.5901 16.871 31.4716 16.9232 31.3531 16.9494C31.2642 16.9755 31.2049 17.0017 31.116 17.0539C30.9975 17.1062 30.9087 17.1323 30.8198 17.1846C30.6716 17.263 30.5235 17.3414 30.3754 17.4199C30.2865 17.4721 30.2272 17.4983 30.1383 17.5505C30.0791 17.5767 30.0495 17.6028 29.9902 17.6289C29.7236 17.7858 29.4865 17.9687 29.2792 18.1778C28.1533 19.171 27.4423 20.5563 27.4423 22.0984C27.4423 22.4904 27.5015 22.8563 27.5904 23.2484C27.62 23.3529 27.6497 23.4314 27.6793 23.5359C27.7682 23.7973 27.8571 24.0586 27.9756 24.32V24.3461C28.0941 24.5552 28.2126 24.7905 28.3607 24.9734H13.162ZM37.0711 24.9734C36.2119 25.7314 35.0565 26.1757 33.7529 26.1757C32.5085 26.1757 31.3531 25.7314 30.5235 25.0257C30.405 24.9212 30.2865 24.7905 30.168 24.6859C30.0791 24.6075 29.9902 24.503 29.9013 24.4246C29.7828 24.2939 29.6939 24.137 29.6051 23.9802C29.5458 23.8757 29.4865 23.7973 29.4273 23.6927C29.368 23.562 29.3088 23.4052 29.2792 23.2484C29.2495 23.1438 29.1903 23.0132 29.1607 22.9086C29.1014 22.6472 29.0718 22.3597 29.0718 22.0722C29.0718 20.9222 29.6051 19.9029 30.4346 19.1449C31.2642 18.3869 32.4493 17.9426 33.7529 17.9426C35.0565 17.9426 36.2119 18.4131 37.0711 19.1449C37.9303 19.9029 38.434 20.9222 38.434 22.0722C38.434 23.1961 37.9007 24.2155 37.0711 24.9734Z" fill="white"/>
<path d="M34.3334 19.2499C34.2741 19.1976 34.1852 19.1453 34.0667 19.093C33.9778 19.0669 33.8889 19.0408 33.8001 19.0408C33.7704 19.0408 33.7704 19.0408 33.7704 19.0408C33.7408 19.0408 33.7408 19.0408 33.7408 19.0408C33.6519 19.0408 33.563 19.0669 33.4742 19.093C33.3853 19.1192 33.2964 19.1715 33.2075 19.2499L31.3706 20.8704C31.0744 21.1317 31.0744 21.5761 31.3706 21.8636C31.6669 22.1249 32.1706 22.1249 32.4965 21.8636L32.9705 21.4454V24.3204C32.9705 24.7125 33.326 25.0261 33.7704 25.0261C34.2148 25.0261 34.5704 24.7125 34.5704 24.3204V21.4454L35.0444 21.8636C35.3407 22.1249 35.8443 22.1249 36.1702 21.8636C36.4665 21.6022 36.4665 21.1579 36.1702 20.8704L34.3334 19.2499Z" fill="white"/>
</g>
<path d="M49.1082 20.7197V12.4037H54.1242V13.3997H50.2722V15.9077H53.6922V16.8917H50.2722V20.7197H49.1082ZM56.9841 19.9157C57.2481 19.9157 57.4801 19.9117 57.6801 19.9037C57.8881 19.8877 58.0601 19.8637 58.1961 19.8317V17.9717C58.1161 17.9317 57.9841 17.8997 57.8001 17.8757C57.6241 17.8437 57.4081 17.8277 57.1521 17.8277C56.9841 17.8277 56.8041 17.8397 56.6121 17.8637C56.4281 17.8877 56.2561 17.9397 56.0961 18.0197C55.9441 18.0917 55.8161 18.1957 55.7121 18.3317C55.6081 18.4597 55.5561 18.6317 55.5561 18.8477C55.5561 19.2477 55.6841 19.5277 55.9401 19.6877C56.1961 19.8397 56.5441 19.9157 56.9841 19.9157ZM56.8881 14.3237C57.3361 14.3237 57.7121 14.3837 58.0161 14.5037C58.3281 14.6157 58.5761 14.7797 58.7601 14.9957C58.9521 15.2037 59.0881 15.4557 59.1681 15.7517C59.2481 16.0397 59.2881 16.3597 59.2881 16.7117V20.6117C59.1921 20.6277 59.0561 20.6517 58.8801 20.6837C58.7121 20.7077 58.5201 20.7317 58.3041 20.7557C58.0881 20.7797 57.8521 20.7997 57.5961 20.8157C57.3481 20.8397 57.1001 20.8517 56.8521 20.8517C56.5001 20.8517 56.1761 20.8157 55.8801 20.7437C55.5841 20.6717 55.3281 20.5597 55.1121 20.4077C54.8961 20.2477 54.7281 20.0397 54.6081 19.7837C54.4881 19.5277 54.4281 19.2197 54.4281 18.8597C54.4281 18.5157 54.4961 18.2197 54.6321 17.9717C54.7761 17.7237 54.9681 17.5237 55.2081 17.3717C55.4481 17.2197 55.7281 17.1077 56.0481 17.0357C56.3681 16.9637 56.7041 16.9277 57.0561 16.9277C57.1681 16.9277 57.2841 16.9357 57.4041 16.9517C57.5241 16.9597 57.6361 16.9757 57.7401 16.9997C57.8521 17.0157 57.9481 17.0317 58.0281 17.0477C58.1081 17.0637 58.1641 17.0757 58.1961 17.0837V16.7717C58.1961 16.5877 58.1761 16.4077 58.1361 16.2317C58.0961 16.0477 58.0241 15.8877 57.9201 15.7517C57.8161 15.6077 57.6721 15.4957 57.4881 15.4157C57.3121 15.3277 57.0801 15.2837 56.7921 15.2837C56.4241 15.2837 56.1001 15.3117 55.8201 15.3677C55.5481 15.4157 55.3441 15.4677 55.2081 15.5237L55.0761 14.5997C55.2201 14.5357 55.4601 14.4757 55.7961 14.4197C56.1321 14.3557 56.4961 14.3237 56.8881 14.3237ZM63.8536 20.8637C63.3496 20.8637 62.9056 20.7837 62.5216 20.6237C62.1456 20.4637 61.8256 20.2397 61.5616 19.9517C61.3056 19.6637 61.1136 19.3237 60.9856 18.9317C60.8576 18.5317 60.7936 18.0917 60.7936 17.6117C60.7936 17.1317 60.8616 16.6917 60.9976 16.2917C61.1416 15.8917 61.3416 15.5477 61.5976 15.2597C61.8536 14.9637 62.1656 14.7357 62.5336 14.5757C62.9096 14.4077 63.3256 14.3237 63.7816 14.3237C64.0616 14.3237 64.3416 14.3477 64.6216 14.3957C64.9016 14.4437 65.1696 14.5197 65.4256 14.6237L65.1736 15.5717C65.0056 15.4917 64.8096 15.4277 64.5856 15.3797C64.3696 15.3317 64.1376 15.3077 63.8896 15.3077C63.2656 15.3077 62.7856 15.5037 62.4496 15.8957C62.1216 16.2877 61.9576 16.8597 61.9576 17.6117C61.9576 17.9477 61.9936 18.2557 62.0656 18.5357C62.1456 18.8157 62.2656 19.0557 62.4256 19.2557C62.5936 19.4557 62.8056 19.6117 63.0616 19.7237C63.3176 19.8277 63.6296 19.8797 63.9976 19.8797C64.2936 19.8797 64.5616 19.8517 64.8016 19.7957C65.0416 19.7397 65.2296 19.6797 65.3656 19.6157L65.5216 20.5517C65.4576 20.5917 65.3656 20.6317 65.2456 20.6717C65.1256 20.7037 64.9896 20.7317 64.8376 20.7557C64.6856 20.7877 64.5216 20.8117 64.3456 20.8277C64.1776 20.8517 64.0136 20.8637 63.8536 20.8637ZM68.8318 19.9157C69.0958 19.9157 69.3278 19.9117 69.5278 19.9037C69.7358 19.8877 69.9078 19.8637 70.0438 19.8317V17.9717C69.9638 17.9317 69.8318 17.8997 69.6478 17.8757C69.4718 17.8437 69.2558 17.8277 68.9998 17.8277C68.8318 17.8277 68.6518 17.8397 68.4598 17.8637C68.2758 17.8877 68.1038 17.9397 67.9438 18.0197C67.7918 18.0917 67.6638 18.1957 67.5598 18.3317C67.4558 18.4597 67.4038 18.6317 67.4038 18.8477C67.4038 19.2477 67.5318 19.5277 67.7878 19.6877C68.0438 19.8397 68.3918 19.9157 68.8318 19.9157ZM68.7358 14.3237C69.1838 14.3237 69.5598 14.3837 69.8638 14.5037C70.1758 14.6157 70.4238 14.7797 70.6078 14.9957C70.7998 15.2037 70.9358 15.4557 71.0158 15.7517C71.0958 16.0397 71.1358 16.3597 71.1358 16.7117V20.6117C71.0398 20.6277 70.9038 20.6517 70.7278 20.6837C70.5598 20.7077 70.3678 20.7317 70.1518 20.7557C69.9358 20.7797 69.6998 20.7997 69.4438 20.8157C69.1958 20.8397 68.9478 20.8517 68.6998 20.8517C68.3478 20.8517 68.0238 20.8157 67.7278 20.7437C67.4318 20.6717 67.1758 20.5597 66.9598 20.4077C66.7438 20.2477 66.5758 20.0397 66.4558 19.7837C66.3358 19.5277 66.2758 19.2197 66.2758 18.8597C66.2758 18.5157 66.3438 18.2197 66.4798 17.9717C66.6238 17.7237 66.8158 17.5237 67.0558 17.3717C67.2958 17.2197 67.5758 17.1077 67.8958 17.0357C68.2158 16.9637 68.5518 16.9277 68.9038 16.9277C69.0158 16.9277 69.1318 16.9357 69.2518 16.9517C69.3718 16.9597 69.4838 16.9757 69.5878 16.9997C69.6998 17.0157 69.7958 17.0317 69.8758 17.0477C69.9558 17.0637 70.0118 17.0757 70.0438 17.0837V16.7717C70.0438 16.5877 70.0238 16.4077 69.9838 16.2317C69.9438 16.0477 69.8718 15.8877 69.7678 15.7517C69.6638 15.6077 69.5198 15.4957 69.3358 15.4157C69.1598 15.3277 68.9278 15.2837 68.6398 15.2837C68.2718 15.2837 67.9478 15.3117 67.6678 15.3677C67.3958 15.4157 67.1918 15.4677 67.0558 15.5237L66.9238 14.5997C67.0678 14.5357 67.3078 14.4757 67.6438 14.4197C67.9798 14.3557 68.3438 14.3237 68.7358 14.3237ZM81.2746 17.5997C81.2746 18.0957 81.2026 18.5437 81.0586 18.9437C80.9146 19.3437 80.7106 19.6877 80.4466 19.9757C80.1906 20.2637 79.8826 20.4877 79.5226 20.6477C79.1626 20.7997 78.7706 20.8757 78.3466 20.8757C77.9226 20.8757 77.5306 20.7997 77.1706 20.6477C76.8106 20.4877 76.4986 20.2637 76.2346 19.9757C75.9786 19.6877 75.7786 19.3437 75.6346 18.9437C75.4906 18.5437 75.4186 18.0957 75.4186 17.5997C75.4186 17.1117 75.4906 16.6677 75.6346 16.2677C75.7786 15.8597 75.9786 15.5117 76.2346 15.2237C76.4986 14.9357 76.8106 14.7157 77.1706 14.5637C77.5306 14.4037 77.9226 14.3237 78.3466 14.3237C78.7706 14.3237 79.1626 14.4037 79.5226 14.5637C79.8826 14.7157 80.1906 14.9357 80.4466 15.2237C80.7106 15.5117 80.9146 15.8597 81.0586 16.2677C81.2026 16.6677 81.2746 17.1117 81.2746 17.5997ZM80.1106 17.5997C80.1106 16.8957 79.9506 16.3397 79.6306 15.9317C79.3186 15.5157 78.8906 15.3077 78.3466 15.3077C77.8026 15.3077 77.3706 15.5157 77.0506 15.9317C76.7386 16.3397 76.5826 16.8957 76.5826 17.5997C76.5826 18.3037 76.7386 18.8637 77.0506 19.2797C77.3706 19.6877 77.8026 19.8917 78.3466 19.8917C78.8906 19.8917 79.3186 19.6877 79.6306 19.2797C79.9506 18.8637 80.1106 18.3037 80.1106 17.5997ZM90.5901 20.5397C90.3341 20.6037 89.9941 20.6717 89.5701 20.7437C89.1541 20.8157 88.6701 20.8517 88.1181 20.8517C87.6381 20.8517 87.2341 20.7837 86.9061 20.6477C86.5781 20.5037 86.3141 20.3037 86.1141 20.0477C85.9141 19.7917 85.7701 19.4917 85.6821 19.1477C85.5941 18.7957 85.5501 18.4077 85.5501 17.9837V14.4797H86.6661V17.7437C86.6661 18.5037 86.7861 19.0477 87.0261 19.3757C87.2661 19.7037 87.6701 19.8677 88.2381 19.8677C88.3581 19.8677 88.4821 19.8637 88.6101 19.8557C88.7381 19.8477 88.8581 19.8397 88.9701 19.8317C89.0821 19.8157 89.1821 19.8037 89.2701 19.7957C89.3661 19.7797 89.4341 19.7637 89.4741 19.7477V14.4797H90.5901V20.5397ZM96.8447 17.6117C96.8447 16.8837 96.6647 16.3237 96.3047 15.9317C95.9447 15.5397 95.4647 15.3437 94.8647 15.3437C94.5287 15.3437 94.2647 15.3557 94.0727 15.3797C93.8887 15.4037 93.7407 15.4317 93.6287 15.4637V19.3997C93.7647 19.5117 93.9607 19.6197 94.2167 19.7237C94.4727 19.8277 94.7527 19.8797 95.0567 19.8797C95.3767 19.8797 95.6487 19.8237 95.8727 19.7117C96.1047 19.5917 96.2927 19.4317 96.4367 19.2317C96.5807 19.0237 96.6847 18.7837 96.7487 18.5117C96.8127 18.2317 96.8447 17.9317 96.8447 17.6117ZM98.0087 17.6117C98.0087 18.0837 97.9447 18.5197 97.8167 18.9197C97.6967 19.3197 97.5167 19.6637 97.2767 19.9517C97.0367 20.2397 96.7407 20.4637 96.3887 20.6237C96.0447 20.7837 95.6487 20.8637 95.2007 20.8637C94.8407 20.8637 94.5207 20.8157 94.2407 20.7197C93.9687 20.6237 93.7647 20.5317 93.6287 20.4437V22.9397H92.5127V14.6717C92.7767 14.6077 93.1047 14.5397 93.4967 14.4677C93.8967 14.3877 94.3567 14.3477 94.8767 14.3477C95.3567 14.3477 95.7887 14.4237 96.1727 14.5757C96.5567 14.7277 96.8847 14.9437 97.1567 15.2237C97.4287 15.5037 97.6367 15.8477 97.7807 16.2557C97.9327 16.6557 98.0087 17.1077 98.0087 17.6117ZM101.451 20.8397C100.763 20.8237 100.275 20.6757 99.9871 20.3957C99.6991 20.1157 99.5551 19.6797 99.5551 19.0877V11.5997L100.671 11.4077V18.9077C100.671 19.0917 100.687 19.2437 100.719 19.3637C100.751 19.4837 100.803 19.5797 100.875 19.6517C100.947 19.7237 101.043 19.7797 101.163 19.8197C101.283 19.8517 101.431 19.8797 101.607 19.9037L101.451 20.8397ZM108.368 17.5997C108.368 18.0957 108.296 18.5437 108.152 18.9437C108.008 19.3437 107.804 19.6877 107.54 19.9757C107.284 20.2637 106.976 20.4877 106.616 20.6477C106.256 20.7997 105.864 20.8757 105.44 20.8757C105.016 20.8757 104.624 20.7997 104.264 20.6477C103.904 20.4877 103.592 20.2637 103.328 19.9757C103.072 19.6877 102.872 19.3437 102.728 18.9437C102.584 18.5437 102.512 18.0957 102.512 17.5997C102.512 17.1117 102.584 16.6677 102.728 16.2677C102.872 15.8597 103.072 15.5117 103.328 15.2237C103.592 14.9357 103.904 14.7157 104.264 14.5637C104.624 14.4037 105.016 14.3237 105.44 14.3237C105.864 14.3237 106.256 14.4037 106.616 14.5637C106.976 14.7157 107.284 14.9357 107.54 15.2237C107.804 15.5117 108.008 15.8597 108.152 16.2677C108.296 16.6677 108.368 17.1117 108.368 17.5997ZM107.204 17.5997C107.204 16.8957 107.044 16.3397 106.724 15.9317C106.412 15.5157 105.984 15.3077 105.44 15.3077C104.896 15.3077 104.464 15.5157 104.144 15.9317C103.832 16.3397 103.676 16.8957 103.676 17.5997C103.676 18.3037 103.832 18.8637 104.144 19.2797C104.464 19.6877 104.896 19.8917 105.44 19.8917C105.984 19.8917 106.412 19.6877 106.724 19.2797C107.044 18.8637 107.204 18.3037 107.204 17.5997ZM112.051 19.9157C112.315 19.9157 112.547 19.9117 112.747 19.9037C112.955 19.8877 113.127 19.8637 113.263 19.8317V17.9717C113.183 17.9317 113.051 17.8997 112.867 17.8757C112.691 17.8437 112.475 17.8277 112.219 17.8277C112.051 17.8277 111.871 17.8397 111.679 17.8637C111.495 17.8877 111.323 17.9397 111.163 18.0197C111.011 18.0917 110.883 18.1957 110.779 18.3317C110.675 18.4597 110.623 18.6317 110.623 18.8477C110.623 19.2477 110.751 19.5277 111.007 19.6877C111.263 19.8397 111.611 19.9157 112.051 19.9157ZM111.955 14.3237C112.403 14.3237 112.779 14.3837 113.083 14.5037C113.395 14.6157 113.643 14.7797 113.827 14.9957C114.019 15.2037 114.155 15.4557 114.235 15.7517C114.315 16.0397 114.355 16.3597 114.355 16.7117V20.6117C114.259 20.6277 114.123 20.6517 113.947 20.6837C113.779 20.7077 113.587 20.7317 113.371 20.7557C113.155 20.7797 112.919 20.7997 112.663 20.8157C112.415 20.8397 112.167 20.8517 111.919 20.8517C111.567 20.8517 111.243 20.8157 110.947 20.7437C110.651 20.6717 110.395 20.5597 110.179 20.4077C109.963 20.2477 109.795 20.0397 109.675 19.7837C109.555 19.5277 109.495 19.2197 109.495 18.8597C109.495 18.5157 109.563 18.2197 109.699 17.9717C109.843 17.7237 110.035 17.5237 110.275 17.3717C110.515 17.2197 110.795 17.1077 111.115 17.0357C111.435 16.9637 111.771 16.9277 112.123 16.9277C112.235 16.9277 112.351 16.9357 112.471 16.9517C112.591 16.9597 112.703 16.9757 112.807 16.9997C112.919 17.0157 113.015 17.0317 113.095 17.0477C113.175 17.0637 113.231 17.0757 113.263 17.0837V16.7717C113.263 16.5877 113.243 16.4077 113.203 16.2317C113.163 16.0477 113.091 15.8877 112.987 15.7517C112.883 15.6077 112.739 15.4957 112.555 15.4157C112.379 15.3277 112.147 15.2837 111.859 15.2837C111.491 15.2837 111.167 15.3117 110.887 15.3677C110.615 15.4157 110.411 15.4677 110.275 15.5237L110.143 14.5997C110.287 14.5357 110.527 14.4757 110.863 14.4197C111.199 14.3557 111.563 14.3237 111.955 14.3237ZM120.24 15.7997C120.104 15.6877 119.908 15.5797 119.652 15.4757C119.396 15.3717 119.116 15.3197 118.812 15.3197C118.492 15.3197 118.216 15.3797 117.984 15.4997C117.76 15.6117 117.576 15.7717 117.432 15.9797C117.288 16.1797 117.184 16.4197 117.12 16.6997C117.056 16.9797 117.024 17.2797 117.024 17.5997C117.024 18.3277 117.204 18.8917 117.564 19.2917C117.924 19.6837 118.404 19.8797 119.004 19.8797C119.308 19.8797 119.56 19.8677 119.76 19.8437C119.968 19.8117 120.128 19.7797 120.24 19.7477V15.7997ZM120.24 11.5997L121.356 11.4077V20.5397C121.1 20.6117 120.772 20.6837 120.372 20.7557C119.972 20.8277 119.512 20.8637 118.992 20.8637C118.512 20.8637 118.08 20.7877 117.696 20.6357C117.312 20.4837 116.984 20.2677 116.712 19.9877C116.44 19.7077 116.228 19.3677 116.076 18.9677C115.932 18.5597 115.86 18.1037 115.86 17.5997C115.86 17.1197 115.92 16.6797 116.04 16.2797C116.168 15.8797 116.352 15.5357 116.592 15.2477C116.832 14.9597 117.124 14.7357 117.468 14.5757C117.82 14.4157 118.22 14.3357 118.668 14.3357C119.028 14.3357 119.344 14.3837 119.616 14.4797C119.896 14.5757 120.104 14.6677 120.24 14.7557V11.5997ZM130.084 15.7997C129.948 15.6877 129.752 15.5797 129.496 15.4757C129.24 15.3717 128.96 15.3197 128.656 15.3197C128.336 15.3197 128.06 15.3797 127.828 15.4997C127.604 15.6117 127.42 15.7717 127.276 15.9797C127.132 16.1797 127.028 16.4197 126.964 16.6997C126.9 16.9797 126.868 17.2797 126.868 17.5997C126.868 18.3277 127.048 18.8917 127.408 19.2917C127.768 19.6837 128.248 19.8797 128.848 19.8797C129.152 19.8797 129.404 19.8677 129.604 19.8437C129.812 19.8117 129.972 19.7797 130.084 19.7477V15.7997ZM130.084 11.5997L131.2 11.4077V20.5397C130.944 20.6117 130.616 20.6837 130.216 20.7557C129.816 20.8277 129.356 20.8637 128.836 20.8637C128.356 20.8637 127.924 20.7877 127.54 20.6357C127.156 20.4837 126.828 20.2677 126.556 19.9877C126.284 19.7077 126.072 19.3677 125.92 18.9677C125.776 18.5597 125.704 18.1037 125.704 17.5997C125.704 17.1197 125.764 16.6797 125.884 16.2797C126.012 15.8797 126.196 15.5357 126.436 15.2477C126.676 14.9597 126.968 14.7357 127.312 14.5757C127.664 14.4157 128.064 14.3357 128.512 14.3357C128.872 14.3357 129.188 14.3837 129.46 14.4797C129.74 14.5757 129.948 14.6677 130.084 14.7557V11.5997ZM135.23 19.9157C135.494 19.9157 135.726 19.9117 135.926 19.9037C136.134 19.8877 136.306 19.8637 136.442 19.8317V17.9717C136.362 17.9317 136.23 17.8997 136.046 17.8757C135.87 17.8437 135.654 17.8277 135.398 17.8277C135.23 17.8277 135.05 17.8397 134.858 17.8637C134.674 17.8877 134.502 17.9397 134.342 18.0197C134.19 18.0917 134.062 18.1957 133.958 18.3317C133.854 18.4597 133.802 18.6317 133.802 18.8477C133.802 19.2477 133.93 19.5277 134.186 19.6877C134.442 19.8397 134.79 19.9157 135.23 19.9157ZM135.134 14.3237C135.582 14.3237 135.958 14.3837 136.262 14.5037C136.574 14.6157 136.822 14.7797 137.006 14.9957C137.198 15.2037 137.334 15.4557 137.414 15.7517C137.494 16.0397 137.534 16.3597 137.534 16.7117V20.6117C137.438 20.6277 137.302 20.6517 137.126 20.6837C136.958 20.7077 136.766 20.7317 136.55 20.7557C136.334 20.7797 136.098 20.7997 135.842 20.8157C135.594 20.8397 135.346 20.8517 135.098 20.8517C134.746 20.8517 134.422 20.8157 134.126 20.7437C133.83 20.6717 133.574 20.5597 133.358 20.4077C133.142 20.2477 132.974 20.0397 132.854 19.7837C132.734 19.5277 132.674 19.2197 132.674 18.8597C132.674 18.5157 132.742 18.2197 132.878 17.9717C133.022 17.7237 133.214 17.5237 133.454 17.3717C133.694 17.2197 133.974 17.1077 134.294 17.0357C134.614 16.9637 134.95 16.9277 135.302 16.9277C135.414 16.9277 135.53 16.9357 135.65 16.9517C135.77 16.9597 135.882 16.9757 135.986 16.9997C136.098 17.0157 136.194 17.0317 136.274 17.0477C136.354 17.0637 136.41 17.0757 136.442 17.0837V16.7717C136.442 16.5877 136.422 16.4077 136.382 16.2317C136.342 16.0477 136.27 15.8877 136.166 15.7517C136.062 15.6077 135.918 15.4957 135.734 15.4157C135.558 15.3277 135.326 15.2837 135.038 15.2837C134.67 15.2837 134.346 15.3117 134.066 15.3677C133.794 15.4157 133.59 15.4677 133.454 15.5237L133.322 14.5997C133.466 14.5357 133.706 14.4757 134.042 14.4197C134.378 14.3557 134.742 14.3237 135.134 14.3237ZM144.601 11.4077C144.929 11.4077 145.209 11.4317 145.441 11.4797C145.681 11.5277 145.849 11.5717 145.945 11.6117L145.741 12.5717C145.645 12.5237 145.509 12.4797 145.333 12.4397C145.157 12.3917 144.941 12.3677 144.685 12.3677C144.165 12.3677 143.801 12.5117 143.593 12.7997C143.385 13.0797 143.281 13.4597 143.281 13.9397V14.4797H145.681V15.4157H143.281V20.7197H142.165V13.9157C142.165 13.1157 142.361 12.4997 142.753 12.0677C143.145 11.6277 143.761 11.4077 144.601 11.4077ZM152.302 17.5997C152.302 18.0957 152.23 18.5437 152.086 18.9437C151.942 19.3437 151.738 19.6877 151.474 19.9757C151.218 20.2637 150.91 20.4877 150.55 20.6477C150.19 20.7997 149.798 20.8757 149.374 20.8757C148.95 20.8757 148.558 20.7997 148.198 20.6477C147.838 20.4877 147.526 20.2637 147.262 19.9757C147.006 19.6877 146.806 19.3437 146.662 18.9437C146.518 18.5437 146.446 18.0957 146.446 17.5997C146.446 17.1117 146.518 16.6677 146.662 16.2677C146.806 15.8597 147.006 15.5117 147.262 15.2237C147.526 14.9357 147.838 14.7157 148.198 14.5637C148.558 14.4037 148.95 14.3237 149.374 14.3237C149.798 14.3237 150.19 14.4037 150.55 14.5637C150.91 14.7157 151.218 14.9357 151.474 15.2237C151.738 15.5117 151.942 15.8597 152.086 16.2677C152.23 16.6677 152.302 17.1117 152.302 17.5997ZM151.138 17.5997C151.138 16.8957 150.978 16.3397 150.658 15.9317C150.346 15.5157 149.918 15.3077 149.374 15.3077C148.83 15.3077 148.398 15.5157 148.078 15.9317C147.766 16.3397 147.61 16.8957 147.61 17.5997C147.61 18.3037 147.766 18.8637 148.078 19.2797C148.398 19.6877 148.83 19.8917 149.374 19.8917C149.918 19.8917 150.346 19.6877 150.658 19.2797C150.978 18.8637 151.138 18.3037 151.138 17.5997ZM154.916 14.4797H157.28V15.4157H154.916V18.2957C154.916 18.6077 154.94 18.8677 154.988 19.0757C155.036 19.2757 155.108 19.4357 155.204 19.5557C155.3 19.6677 155.42 19.7477 155.564 19.7957C155.708 19.8437 155.876 19.8677 156.068 19.8677C156.404 19.8677 156.672 19.8317 156.872 19.7597C157.08 19.6797 157.224 19.6237 157.304 19.5917L157.52 20.5157C157.408 20.5717 157.212 20.6397 156.932 20.7197C156.652 20.8077 156.332 20.8517 155.972 20.8517C155.548 20.8517 155.196 20.7997 154.916 20.6957C154.644 20.5837 154.424 20.4197 154.256 20.2037C154.088 19.9877 153.968 19.7237 153.896 19.4117C153.832 19.0917 153.8 18.7237 153.8 18.3077V12.7397L154.916 12.5477V14.4797ZM164.044 17.5997C164.044 18.0957 163.972 18.5437 163.828 18.9437C163.684 19.3437 163.48 19.6877 163.216 19.9757C162.96 20.2637 162.652 20.4877 162.292 20.6477C161.932 20.7997 161.54 20.8757 161.116 20.8757C160.692 20.8757 160.3 20.7997 159.94 20.6477C159.58 20.4877 159.268 20.2637 159.004 19.9757C158.748 19.6877 158.548 19.3437 158.404 18.9437C158.26 18.5437 158.188 18.0957 158.188 17.5997C158.188 17.1117 158.26 16.6677 158.404 16.2677C158.548 15.8597 158.748 15.5117 159.004 15.2237C159.268 14.9357 159.58 14.7157 159.94 14.5637C160.3 14.4037 160.692 14.3237 161.116 14.3237C161.54 14.3237 161.932 14.4037 162.292 14.5637C162.652 14.7157 162.96 14.9357 163.216 15.2237C163.48 15.5117 163.684 15.8597 163.828 16.2677C163.972 16.6677 164.044 17.1117 164.044 17.5997ZM162.88 17.5997C162.88 16.8957 162.72 16.3397 162.4 15.9317C162.088 15.5157 161.66 15.3077 161.116 15.3077C160.572 15.3077 160.14 15.5157 159.82 15.9317C159.508 16.3397 159.352 16.8957 159.352 17.5997C159.352 18.3037 159.508 18.8637 159.82 19.2797C160.14 19.6877 160.572 19.8917 161.116 19.8917C161.66 19.8917 162.088 19.6877 162.4 19.2797C162.72 18.8637 162.88 18.3037 162.88 17.5997Z" fill="white"/>
<defs>
<clipPath id="clip0_505_3995">
<rect width="31.0493" height="27.3915" fill="white" transform="translate(9.01416 1.76709)"/>
</clipPath>
</defs>
</svg>
